PathFileType	4	(X/Y/Z)	HSS_walk4.trc
DataRate	CameraRate	NumFrames	NumMarkers	Units	OrigDataRate	OrigDataStartFrame	OrigNumFrames
120.0	120.0	7	44	mm	120.0	867	1155
Frame#	Time		R.Shoulder		Offset		L.Shoulder		R.Elbow		R.Wrist.Radial		R.Wrist		R.Hand		L.Elbow		L.Wrist.Radial		L.Wrist		L.Hand		R.Hip		V.Sacral		L.PSIS		L.Hip		R.Thigh.Upper		R.Thigh.Front		R.Thigh.Rear		X.Shell.Lower.Thigh.Right		R.Knee.Lateral		R.Shank.Upper		R.Shank.Front		R.Shank.Rear		X.Shell.Lower.Shank.Right		R.Ankle.Lateral		R.Heel		R.Toe		L.Thigh.Upper		L.Thigh.Front		L.Thigh.Rear		X.Shell.Lower.Thigh.Left		L.Knee.Lateral		L.Shank.Upper		L.Shank.Front		L.Shank.Rear		X.Shell.Lower.Shank.Left		L.Ankle.Lateral		L.Heel		L.Toe		R.Troc		L.Troc		R.PSIS		L.ASIS		R.ASIS
			X1	Y1	Z1	X2	Y2	Z2	X3	Y3	Z3	X4	Y4	Z4	X5	Y5	Z5	X6	Y6	Z6	X7	Y7	Z7	X8	Y8	Z8	X9	Y9	Z9	X10	Y10	Z10	X11	Y11	Z11	X12	Y12	Z12	X13	Y13	Z13	X14	Y14	Z14	X15	Y15	Z15	X16	Y16	Z16	X17	Y17	Z17	X18	Y18	Z18	X19	Y19	Z19	X20	Y20	Z20	X21	Y21	Z21	X22	Y22	Z22	X23	Y23	Z23	X24	Y24	Z24	X25	Y25	Z25	X26	Y26	Z26	X27	Y27	Z27	X28	Y28	Z28	X29	Y29	Z29	X30	Y30	Z30	X31	Y31	Z31	X32	Y32	Z32	X33	Y33	Z33	X34	Y34	Z34	X35	Y35	Z35	X36	Y36	Z36	X37	Y37	Z37	X38	Y38	Z38	X39	Y39	Z39	X40	Y40	Z40	X41	Y41	Z41	X42	Y42	Z42	X43	Y43	Z43	X44	Y44	Z44

867	7.21667	2533.93359	1436.97778	15.34034	2447.27124	1354.72705	-283.50833	2575.87085	1455.37732	-350.77557	2414.94409	1097.76147	30.03249	2397.91870	860.90857	112.87054	2447.10986	845.60162	58.96776	2405.18677	772.44928	112.97953	2681.72974	1100.84363	-417.48203	2916.14404	1020.50397	-429.72467	2937.16772	1056.63086	-370.53683	3000.77881	1014.37463	-416.66586	2593.01831	1000.34412	-19.65967	2476.31299	979.54248	-163.94611	2477.54004	987.55615	-205.81056	2592.43311	997.66132	-317.62604	2739.36792	684.44318	-1.15946	2782.23560	663.37054	-23.14588	2733.57983	640.00000	7.89777	2769.03296	620.64404	-14.94547	2750.77905	500.31113	-29.27908	2774.53516	353.61841	9.26256	2813.01660	321.03909	-16.50750	2753.75000	310.63443	-6.77437	2787.02246	279.24020	-17.32065	2842.66895	67.78786	-73.93289	2810.42847	29.31435	-128.15338	2997.57788	51.67112	-74.14291	2598.05151	652.60828	-318.88809	2608.52393	602.42871	-293.01312	2561.44922	621.85931	-329.76233	2580.64478	584.16541	-314.91565	2490.11792	479.83252	-294.42462	2372.18408	309.90985	-333.67520	2381.12866	278.01718	-312.01904	2324.60718	291.94406	-325.30157	2329.61670	254.07561	-322.59976	2250.06812	109.63783	-269.89716	2177.61426	100.20766	-230.71358	2367.89551	35.11740	-239.18240	2636.37695	854.48248	11.16407	2587.99780	858.35986	-354.77951	2476.61719	984.01428	-121.26924	2659.54395	962.34540	-280.53586	2657.97363	967.45496	-54.72927
868	7.22500	2545.11060	1436.20776	17.04350	2458.77881	1354.74353	-281.40894	2586.98071	1455.56995	-348.72546	2426.06250	1097.21472	31.17292	2407.80420	860.54926	113.67905	2456.25000	844.69214	59.46372	2414.54468	771.91339	113.57798	2690.01489	1100.40906	-416.32886	2925.93530	1020.90753	-427.55313	2946.41577	1057.76257	-368.64478	3010.48096	1015.87415	-414.51392	2605.67017	1000.64612	-19.14104	2488.84131	979.55621	-163.25844	2490.83594	987.42255	-204.96037	2605.36377	997.30511	-316.94839	2751.31860	684.29694	0.29320	2794.57324	662.91083	-20.88185	2744.80566	639.94934	8.61409	2780.51782	620.31311	-13.41495	2760.95703	500.41666	-27.82720	2782.54858	353.55896	8.40268	2821.97900	321.23419	-16.26095	2762.50073	310.70966	-8.70669	2796.21582	279.41577	-18.76651	2850.20190	68.18581	-72.28608	2814.97705	32.53967	-126.99329	3004.16040	45.43647	-74.01723	2610.13794	651.51471	-318.02286	2620.43018	601.23816	-292.11578	2573.20630	620.70807	-328.94962	2592.64404	583.01691	-314.20291	2501.66357	478.86011	-293.67633	2379.71802	311.91171	-333.64468	2388.65967	279.41681	-311.57504	2331.81616	295.13437	-325.21951	2336.16772	257.13580	-322.47552	2253.61084	114.13882	-270.64096	2180.92969	106.77550	-231.02425	2368.18140	35.08796	-239.31696	2649.42822	853.54443	11.56818	2600.09644	857.14050	-353.50610	2489.09863	984.27637	-120.40418	2671.86011	961.37799	-279.76932	2670.29370	967.75092	-53.93628
869	7.23333	2556.36401	1435.67944	18.74390	2470.13843	1354.46716	-279.60226	2598.27026	1455.92029	-346.92966	2437.44922	1096.83569	32.41886	2418.61597	860.19446	115.03435	2466.91919	844.10529	60.32152	2424.65210	771.42657	114.68035	2698.67407	1099.72827	-415.09927	2935.00659	1020.98846	-425.27545	2955.31323	1058.34839	-366.78531	3019.56152	1016.80231	-412.49338	2618.43042	1000.99493	-18.93459	2500.99438	980.17859	-162.18517	2502.33472	987.79425	-204.55870	2617.93091	996.66772	-316.50415	2762.84058	684.37744	2.02968	2806.48901	662.62866	-18.56166	2755.45752	640.02502	9.92883	2791.34814	620.02014	-11.75163	2769.87573	500.91220	-26.62729	2791.87671	354.15244	8.91076	2832.21240	321.26492	-14.54904	2772.75415	311.68277	-8.74793	2806.46484	279.90329	-17.25042	2856.50732	67.01410	-71.56025	2818.39551	34.05874	-125.71284	3009.89990	40.15055	-72.41929	2622.36206	650.67590	-317.19235	2632.95190	600.41730	-291.31265	2585.75708	619.58466	-327.94962	2605.23877	582.04132	-313.33945	2514.15308	478.07449	-293.29285	2388.22217	314.41907	-333.16748	2396.63696	281.83453	-311.26953	2340.04126	298.89474	-324.82141	2343.27026	260.50473	-322.03433	2257.68579	119.21452	-271.12973	2185.23706	114.08085	-231.01546	2368.82715	35.07983	-239.53532	2662.40894	854.19965	11.91264	2612.45337	855.80774	-352.32047	2501.57812	984.96216	-119.11810	2684.13135	960.57843	-279.03979	2682.80176	968.39355	-53.35925
870	7.24167	2567.62402	1435.23340	20.59621	2481.34497	1354.30713	-277.65948	2609.58960	1456.44495	-345.15768	2449.09619	1096.44714	33.94157	2429.80103	859.82025	116.27487	2477.84961	843.66290	61.42666	2435.41064	771.18414	115.63159	2706.85376	1099.26123	-413.49945	2943.26880	1020.41223	-422.65942	2963.66504	1058.48511	-364.97995	3028.16553	1017.10303	-410.43112	2631.36963	1001.59888	-18.47828	2513.59399	980.78717	-161.24448	2515.53198	988.08765	-203.68370	2630.64038	996.43073	-316.31726	2773.91040	684.59271	4.14998	2817.54028	662.28882	-15.99242	2765.65625	640.26672	11.60063	2801.52612	619.92358	-9.69836	2778.80859	501.49402	-25.20011	2804.11597	354.50009	10.51550	2843.07471	321.39520	-14.46381	2783.76343	312.20175	-6.40975	2816.84717	280.25867	-15.99112	2860.87573	67.20255	-72.21636	2819.14966	34.61370	-125.88326	3012.58252	36.35762	-71.65967	2635.24634	649.89221	-316.34998	2646.07666	599.63013	-290.66702	2598.70972	618.60468	-327.15814	2618.47778	581.30823	-312.74115	2527.57324	477.45142	-293.10602	2397.19653	316.97458	-333.02267	2404.71729	283.83759	-311.73212	2348.68701	302.66061	-323.95059	2351.00781	264.41797	-321.90775	2262.11450	124.52828	-271.40244	2190.34326	122.02819	-230.72607	2369.37964	35.20647	-240.05452	2675.33398	855.89374	12.84210	2624.81079	854.80811	-350.97995	2513.88745	985.99219	-118.14574	2696.50098	960.27795	-278.42471	2695.33569	969.50806	-52.96254
871	7.25000	2578.91528	1434.89453	22.44587	2492.48853	1354.76917	-275.58990	2620.85669	1457.21191	-343.55927	2461.19946	1096.13879	35.45137	2441.68579	859.60181	117.65133	2489.38110	843.25092	62.30181	2446.67871	770.63879	116.25706	2714.73071	1098.77869	-411.89639	2951.65796	1020.07404	-421.03387	2971.64648	1058.19275	-363.12372	3036.11816	1016.76202	-408.50061	2643.97437	1002.80176	-17.94250	2525.65137	981.89294	-160.41692	2526.99243	988.74365	-202.96104	2642.96606	996.35895	-315.76749	2784.88672	685.40710	6.59191	2828.07422	662.31073	-13.58455	2775.88696	641.19366	14.01174	2811.45166	620.23901	-7.16084	2788.56079	502.50000	-25.21042	2817.10840	355.46365	11.42135	2853.37915	321.49588	-16.54265	2794.46265	313.16049	-3.77338	2826.18628	280.62033	-15.36708	2861.10986	67.14437	-73.58687	2819.44897	34.72317	-126.35792	3013.96167	34.61711	-72.38809	2648.49170	649.26569	-315.70578	2659.91675	598.88660	-290.25693	2612.32812	617.77777	-326.61087	2632.43921	580.42639	-312.47327	2541.68457	476.71371	-293.36383	2406.89185	320.01187	-332.64725	2413.69238	286.44406	-312.10318	2358.25732	307.09848	-323.04166	2359.52441	268.55392	-321.55646	2267.66699	130.66187	-271.88913	2196.52393	130.57924	-230.09669	2369.57812	35.11908	-239.99876	2688.14819	858.48297	14.53363	2637.06128	854.03198	-349.39575	2525.71924	987.61847	-117.38106	2708.74780	960.00226	-277.84558	2707.65991	970.92200	-52.49662
872	7.25833	2590.44653	1435.00317	24.30895	2503.58691	1355.58557	-273.51498	2631.98999	1458.32336	-342.02277	2473.72437	1095.80762	36.62352	2454.10254	859.29785	118.75391	2501.48315	843.15106	63.39782	2458.76929	770.49561	117.31169	2722.22046	1098.44714	-410.08847	2958.74414	1018.55634	-418.48093	2979.02734	1057.35547	-361.37021	3043.66699	1015.84088	-406.48526	2656.20776	1004.55066	-17.20622	2537.61157	983.29608	-160.03963	2539.39478	989.18079	-202.14990	2655.43506	996.18219	-315.32565	2796.10889	687.11157	9.14201	2838.60767	663.35651	-11.57408	2786.83740	643.01843	17.14930	2821.77368	621.56824	-4.54718	2800.19580	504.81158	-25.42859	2829.23853	357.91873	10.85014	2862.81860	322.92557	-18.52272	2804.68140	315.89746	-1.90705	2834.67383	282.38120	-15.03299	2861.56836	67.64935	-74.33648	2819.55859	34.92456	-126.39539	3014.68896	34.47303	-73.91303	2662.59814	648.69922	-315.21887	2674.52612	598.51978	-290.29742	2626.55249	616.97644	-326.19904	2647.05200	579.82611	-312.50229	2556.90381	475.81375	-293.69846	2416.62964	323.73828	-333.07758	2423.35083	289.42035	-312.48624	2368.30176	311.86108	-322.48624	2368.80640	273.13525	-321.09647	2273.51782	136.82869	-272.08005	2204.43994	139.73155	-228.66899	2370.39429	35.03082	-240.23221	2700.21265	861.16730	16.32515	2649.40503	853.47742	-347.96136	2537.32397	989.36078	-116.98144	2721.12964	960.15405	-277.06613	2719.60278	973.08813	-52.00768
873	7.26667	2601.94141	1435.44116	25.91955	2514.63159	1356.79456	-271.48367	2643.04248	1459.66260	-340.62820	2486.42627	1095.97241	38.02701	2467.05518	859.21234	120.06182	2514.23608	842.98956	64.53629	2471.41553	770.47290	118.40529	2729.34595	1098.68994	-408.17307	2965.52588	1017.00189	-416.48114	2986.11206	1056.02759	-359.62631	3050.56714	1014.19659	-404.60898	2667.61548	1006.79346	-16.39048	2549.50293	984.78625	-159.58142	2550.11230	990.30096	-201.88992	2668.18896	996.31140	-314.71869	2807.60059	689.56720	11.16110	2849.38062	665.70013	-10.37537	2798.53906	645.52295	20.10572	2833.09351	623.87494	-2.28263	2812.70605	508.35120	-25.76013	2839.56372	360.42612	10.32505	2871.36035	324.79324	-19.53826	2813.75537	318.66043	-0.71030	2842.91455	284.64578	-14.51349	2861.75098	68.08624	-74.61787	2819.60669	35.07597	-126.27052	3015.19946	34.00613	-74.19220	2676.99365	648.79852	-314.98126	2689.74634	598.37500	-290.66052	2641.76782	616.42010	-326.28113	2662.41528	579.54956	-312.85886	2572.84058	475.60852	-295.19397	2427.96704	328.12756	-332.83865	2433.88940	293.30887	-313.76813	2379.35767	317.77988	-321.93240	2378.70068	278.73068	-320.90463	2280.89209	143.52176	-272.77072	2214.00366	149.53564	-226.94753	2371.09253	35.13980	-240.13824	2711.98486	864.06128	18.31338	2662.09668	852.58722	-346.12302	2549.11670	991.62354	-116.69391	2733.14771	960.49463	-275.96411	2731.27246	975.60144	-51.23916
